<?xml version="1.0" encoding="utf-8"?>
<!-- Generator: Adobe Illustrator 17.1.0, SVG Export Plug-In . SVG Version: 6.00 Build 0)  -->
<!DOCTYPE svg PUBLIC "-//W3C//DTD SVG 1.1//EN" "http://www.w3.org/Graphics/SVG/1.1/DTD/svg11.dtd">
<svg version="1.1" id="Layer_1" xmlns="http://www.w3.org/2000/svg" xmlns:xlink="http://www.w3.org/1999/xlink" x="0px" y="0px"
	 viewBox="0 0 400 400" enable-background="new 0 0 400 400" xml:space="preserve">
<g>
	<path fill="#231F20" d="M305.3,107.8c19.5,22.3,32.1,50.8,34.3,82.2h60.1c-2.4-47.9-21.6-91.5-51.9-124.7L305.3,107.8z"/>
	<path fill="#231F20" d="M60.4,190c2.2-30.9,14.4-59,33.4-81.1L51.2,66.4C21.5,99.5,2.6,142.6,0.2,190H60.4z"/>
	<path fill="#231F20" d="M333.6,51.2c-33.3-30-76.8-48.9-124.6-51v60.1c31.3,2,59.8,14.2,82.1,33.4L333.6,51.2z"/>
	<path fill="#231F20" d="M93.7,291.1c-19-22.1-31.2-50.2-33.4-81.1H0.2c2.3,47.4,21.2,90.5,51,123.6L93.7,291.1z"/>
	<path fill="#231F20" d="M189,60.4V0.3C141.4,2.9,98.3,22.1,65.3,52.2l42.5,42.5C129.8,75.3,158,62.8,189,60.4z"/>
	<path fill="#231F20" d="M189,339.6c-31-2.4-59.2-14.9-81.2-34.2l-42.5,42.5c33,30.1,76.1,49.3,123.7,51.9V339.6z"/>
	<path fill="#231F20" d="M339.6,210c-2.2,31.4-14.8,59.9-34.3,82.2l42.5,42.5c30.3-33.2,49.6-76.8,51.9-124.7H339.6z"/>
	<path fill="#231F20" d="M291.1,306.3c-22.4,19.2-50.9,31.4-82.1,33.4v60.1c47.8-2.1,91.3-21,124.6-51L291.1,306.3z"/>
</g>
</svg>
