<?xml version="1.0" encoding="utf-8"?>
<!-- Generator: Adobe Illustrator 17.1.0, SVG Export Plug-In . SVG Version: 6.00 Build 0)  -->
<!DOCTYPE svg PUBLIC "-//W3C//DTD SVG 1.1//EN" "http://www.w3.org/Graphics/SVG/1.1/DTD/svg11.dtd">
<svg version="1.1" id="Layer_2" xmlns="http://www.w3.org/2000/svg" xmlns:xlink="http://www.w3.org/1999/xlink" x="0px" y="0px"
	 viewBox="0 0 400 400" enable-background="new 0 0 400 400" xml:space="preserve">
<g>
	<path d="M200,400C89.7,400,0,310.3,0,200C0,89.7,89.7,0,200,0c110.3,0,200,89.7,200,200C400,310.3,310.3,400,200,400z M200,32.3
		c-92.5,0-167.7,75.2-167.7,167.7c0,92.5,75.2,167.8,167.7,167.8c92.5,0,167.7-75.2,167.7-167.8C367.7,107.5,292.5,32.3,200,32.3z"
		/>
	<path d="M248.5,107.3c-11.7,0-21.2,4.9-21.2,11.1v163.4c0,6.1,9.5,11.1,21.2,11.1c11.7,0,21.2-5,21.2-11.1V118.4
		C269.7,112.2,260.2,107.3,248.5,107.3z"/>
	<path d="M155.1,107.3c-11.7,0-21.2,4.9-21.2,11.1v163.4c0,6.1,9.5,11.1,21.2,11.1c11.7,0,21.2-5,21.2-11.1V118.4
		C176.3,112.2,166.8,107.3,155.1,107.3z"/>
</g>
</svg>
