<?xml version="1.0" encoding="utf-8"?>
<!-- Generator: Adobe Illustrator 17.1.0, SVG Export Plug-In . SVG Version: 6.00 Build 0)  -->
<!DOCTYPE svg PUBLIC "-//W3C//DTD SVG 1.1//EN" "http://www.w3.org/Graphics/SVG/1.1/DTD/svg11.dtd">
<svg version="1.1" id="Layer_2" xmlns="http://www.w3.org/2000/svg" xmlns:xlink="http://www.w3.org/1999/xlink" x="0px" y="0px"
	 viewBox="0 0 400 400" enable-background="new 0 0 400 400" xml:space="preserve">
<path d="M365,137.9c-3.5-18.9-16.9-35.1-35.8-44.8c-7.7-29.1-38.7-50.3-75.7-50.3H75.9c-42.7,0-77.5,28.7-77.5,64.1v102.6
	c0,22.6,13.9,42.9,36.8,54.5c4.3,16,15.8,29.7,31.6,38.7c5.7,30.8,37.7,54.4,76.5,54.4h177.6c42.8,0,77.5-28.7,77.5-64V190.5
	C398.4,168.8,385.2,149.5,365,137.9z M33.3,147.5v94.3c-10.8-8.5-17.1-20-17.1-32.3V106.9c0-25.5,26.8-46.3,59.8-46.3h177.5
	c22.4,0,42.5,10,52.7,24.6c-5.8-1.1-11.7-1.8-17.8-1.8H110.9C68.1,83.5,33.3,112.2,33.3,147.5z M285,246.9l-61.8,49.4
	c-1.1,0.9-2.4,1.4-3.7,1.4c-1.2,0-2.5-0.4-3.6-1.2c-2.3-1.7-3.7-4.9-3.7-8.5v-98.8c0-3.5,1.4-6.8,3.7-8.5c2.3-1.7,5.1-1.7,7.3,0.1
	l61.8,49.5c2.2,1.7,3.6,4.9,3.6,8.3C288.5,242,287.2,245.1,285,246.9z M320.9,126.5H143.3c-42.7,0-77.5,28.7-77.5,64v89.9
	c-9.2-8.2-14.8-18.8-14.8-30.4V147.5c0-25.5,26.8-46.3,59.8-46.3h177.5c24.6,0,45.7,11.6,54.9,28
	C336.2,127.5,328.7,126.5,320.9,126.5z"/>
</svg>
