<?xml version="1.0" encoding="utf-8"?>
<!-- Generator: Adobe Illustrator 17.1.0, SVG Export Plug-In . SVG Version: 6.00 Build 0)  -->
<!DOCTYPE svg PUBLIC "-//W3C//DTD SVG 1.1//EN" "http://www.w3.org/Graphics/SVG/1.1/DTD/svg11.dtd">
<svg version="1.1" id="Layer_2" xmlns="http://www.w3.org/2000/svg" xmlns:xlink="http://www.w3.org/1999/xlink" x="0px" y="0px"
	 viewBox="0 0 400 400" enable-background="new 0 0 400 400" xml:space="preserve">
<g>
	<path fill="#FFFFFF" d="M200,0C89.7,0,0,89.7,0,200c0,110.3,89.7,200,200,200c110.3,0,200-89.7,200-200C400,89.7,310.3,0,200,0z
		 M200,367.7c-92.5,0-167.7-75.2-167.7-167.7c0-92.5,75.2-167.7,167.7-167.7c92.5,0,167.7,75.2,167.7,167.7
		C367.7,292.5,292.5,367.7,200,367.7z"/>
	<path fill="#FFFFFF" d="M181.4,106.5c-3.6-2.9-8.2-3-11.9-0.2c-3.7,2.8-6,8-6,13.7v160.2c0,5.7,2.3,10.9,6,13.7
		c1.8,1.4,3.8,2,5.8,2c2.1,0,4.2-0.8,6-2.3l100.1-80.1c3.6-2.8,5.7-7.9,5.7-13.5c0-5.5-2.2-10.6-5.7-13.5L181.4,106.5z"/>
</g>
</svg>
