<?xml version="1.0" encoding="utf-8"?>
<!-- Generator: Adobe Illustrator 17.1.0, SVG Export Plug-In . SVG Version: 6.00 Build 0)  -->
<!DOCTYPE svg PUBLIC "-//W3C//DTD SVG 1.1//EN" "http://www.w3.org/Graphics/SVG/1.1/DTD/svg11.dtd">
<svg version="1.1" id="Layer_2" xmlns="http://www.w3.org/2000/svg" xmlns:xlink="http://www.w3.org/1999/xlink" x="0px" y="0px"
	 viewBox="0 0 400 400" enable-background="new 0 0 400 400" xml:space="preserve">
<g>
	<path d="M389.5,165.4H200H10.4c-4.9,0.7-8.8,6-8.8,12.7c0,6.6,3.9,12,8.8,12.6v0H200h189.5v0c5-0.6,8.9-6,8.9-12.6
		C398.4,171.4,394.5,166,389.5,165.4z"/>
	<path d="M389.5,236.1H200H10.4c-4.9,0.6-8.8,6-8.8,12.7c0,6.6,3.9,12,8.8,12.6l0,0H200h189.5l0,0c5-0.6,8.9-6,8.9-12.6
		C398.4,242.1,394.5,236.7,389.5,236.1z"/>
	<path d="M389.5,306.7H200H10.4c-4.9,0.7-8.8,6-8.8,12.7c0,6.6,3.9,12,8.8,12.7l0,0H200h189.5l0,0c5-0.6,8.9-6,8.9-12.7
		C398.4,312.7,394.5,307.4,389.5,306.7z"/>
	<path d="M400,94c0,14.3-6.1,26-13.7,26H13.6C6.1,120,0,108.4,0,94l0,0c0-14.4,6.1-26,13.6-26h372.7C393.9,68,400,79.6,400,94
		L400,94z"/>
</g>
</svg>
