<?xml version="1.0" encoding="utf-8"?>
<!-- Generator: Adobe Illustrator 17.1.0, SVG Export Plug-In . SVG Version: 6.00 Build 0)  -->
<!DOCTYPE svg PUBLIC "-//W3C//DTD SVG 1.1//EN" "http://www.w3.org/Graphics/SVG/1.1/DTD/svg11.dtd">
<svg version="1.1" id="Layer_2" xmlns="http://www.w3.org/2000/svg" xmlns:xlink="http://www.w3.org/1999/xlink" x="0px" y="0px"
	 viewBox="0 0 400 400" enable-background="new 0 0 400 400" xml:space="preserve">
<g>
	<path d="M390.4,311.3H201.5H12.7c-5,0.6-8.9,6-8.9,12.6c0,6.6,3.9,12,8.9,12.6v0h188.8h188.9v0c5-0.6,8.8-6,8.8-12.6
		C399.2,317.3,395.3,311.9,390.4,311.3z"/>
	<path d="M347.3,207.3h-62.7v-62.8c0-2.8-4-5.2-8.9-5.2c-4.9,0-8.9,2.3-8.9,5.2v62.8h-62.7c-2.9,0-5.2,3.9-5.2,8.8
		c0,4.9,2.3,8.8,5.2,8.8h62.7v62.8c0,2.9,4,5.2,8.9,5.2c4.9,0,8.9-2.3,8.9-5.2v-62.8h62.7c2.9,0,5.2-3.9,5.2-8.8
		C352.6,211.2,350.2,207.3,347.3,207.3z"/>
	<path d="M12.7,170.5c-5,0.6-8.9,6-8.9,12.6c0,6.6,3.9,11.9,8.9,12.6l0,0h143.9v-25.2H12.7z"/>
	<path d="M12.7,240.9c-5,0.6-8.9,6-8.9,12.6c0,6.6,3.9,12,8.9,12.6v0h143.9v-25.2H12.7z"/>
	<path d="M397.7,89.4c0,14.3-6.1,25.9-13.6,25.9H12.8c-7.5,0-13.6-11.6-13.6-25.9l0,0c0-14.3,6.1-25.9,13.6-25.9h371.4
		C391.6,63.5,397.7,75.1,397.7,89.4L397.7,89.4z"/>
</g>
</svg>
