<?xml version="1.0" encoding="utf-8"?>
<!-- Generator: Adobe Illustrator 15.1.0, SVG Export Plug-In . SVG Version: 6.00 Build 0)  -->
<!DOCTYPE svg PUBLIC "-//W3C//DTD SVG 1.1//EN" "http://www.w3.org/Graphics/SVG/1.1/DTD/svg11.dtd">
<svg version="1.1" id="Layer_1" xmlns="http://www.w3.org/2000/svg" xmlns:xlink="http://www.w3.org/1999/xlink" x="0px" y="0px"
	 width="58.456px" height="56.286px" viewBox="0 0 58.456 56.286" enable-background="new 0 0 58.456 56.286" xml:space="preserve">
<g>
</g>
<path fill="#2C2C2C" d="M58.351,51.364L41.949,34.958c2.249-3.531,3.572-7.707,3.572-12.196C45.521,10.214,35.31,0,22.756,0
	C10.208,0,0,10.214,0,22.762c0,12.551,10.208,22.761,22.756,22.761c5.61,0,10.735-2.046,14.708-5.411l16.07,16.068
	c0.393,0.4,1.787-0.365,3.118-1.696C57.99,53.152,58.747,51.752,58.351,51.364z M6.468,22.761c0-8.983,7.306-16.293,16.288-16.293
	c8.987,0,16.298,7.31,16.298,16.293s-7.311,16.298-16.298,16.298C13.773,39.059,6.468,31.745,6.468,22.761z"/>
</svg>
