<?xml version="1.0" encoding="utf-8"?>
<!-- Generator: Adobe Illustrator 17.1.0, SVG Export Plug-In . SVG Version: 6.00 Build 0)  -->
<!DOCTYPE svg PUBLIC "-//W3C//DTD SVG 1.1//EN" "http://www.w3.org/Graphics/SVG/1.1/DTD/svg11.dtd">
<svg version="1.1" id="Layer_1" xmlns="http://www.w3.org/2000/svg" xmlns:xlink="http://www.w3.org/1999/xlink" x="0px" y="0px"
	 viewBox="0 0 129.1 56.1" enable-background="new 0 0 129.1 56.1" xml:space="preserve">
<g>
	<path fill="#EDEDED" d="M1.5,33.5c-0.3,0-0.5,0.2-0.5,0.5L0,41.2l0.9,7c0,0.3,0.2,0.5,0.5,0.5c0.3,0,0.5-0.2,0.5-0.5l0,0l0,0l0,0
		l1.1-7L2,34C1.9,33.7,1.7,33.5,1.5,33.5z"/>
	<path fill="#EDEDED" d="M6.8,29.6c0-0.3-0.3-0.5-0.5-0.5c-0.3,0-0.5,0.2-0.5,0.5L4.4,41.2l1.3,11.3c0,0.3,0.3,0.5,0.5,0.5
		c0.3,0,0.5-0.2,0.5-0.5l1.4-11.3L6.8,29.6z"/>
	<path fill="#EDEDED" d="M26.8,18.9c-0.5,0-1,0.4-1,1l-1,21.3l1,13.8c0,0.5,0.5,1,1,1c0.5,0,0.9-0.4,1-1l0,0l1.1-13.8l-1.1-21.3
		C27.7,19.3,27.3,18.9,26.8,18.9z"/>
	<path fill="#EDEDED" d="M16.4,26.3c-0.4,0-0.7,0.3-0.8,0.7l-1.1,14.1l1.1,13.7c0,0.4,0.4,0.7,0.8,0.7c0.4,0,0.7-0.3,0.8-0.7
		l1.3-13.7l-1.3-14.1C17.1,26.6,16.8,26.3,16.4,26.3z"/>
	<path fill="#EDEDED" d="M37.3,56c0.6,0,1.2-0.5,1.2-1.2l1-13.6l-1-28.4c0-0.7-0.6-1.2-1.2-1.2c-0.7,0-1.2,0.5-1.2,1.2l-0.9,28.4
		l0.9,13.6C36.1,55.4,36.6,56,37.3,56z"/>
	<path fill="#EDEDED" d="M58.8,56c0.9,0,1.6-0.7,1.6-1.6v0v0l0.7-13.2L60.5,8.4c0-0.9-0.8-1.6-1.6-1.6c-0.9,0-1.6,0.7-1.6,1.6
		l-0.6,32.8c0,0,0.6,13.2,0.6,13.2C57.2,55.3,57.9,56,58.8,56z"/>
	<path fill="#EDEDED" d="M48,56c0.8,0,1.4-0.6,1.4-1.4v0l0.8-13.3l-0.8-28.6c0-0.8-0.6-1.4-1.4-1.4c-0.8,0-1.4,0.6-1.4,1.4
		l-0.7,28.6l0.7,13.3C46.6,55.4,47.2,56,48,56z"/>
	<path fill="#EDEDED" d="M21.6,55.8c0.5,0,0.8-0.4,0.9-0.9l1.2-13.8l-1.2-13.1c0-0.5-0.4-0.9-0.9-0.9c-0.5,0-0.8,0.4-0.9,0.9
		l-1.1,13.1L20.7,55C20.7,55.5,21.1,55.8,21.6,55.8z"/>
	<path fill="#EDEDED" d="M11.3,55.1c0.3,0,0.6-0.3,0.6-0.6l1.4-13.3L12,27.5c0-0.4-0.3-0.6-0.6-0.6c-0.3,0-0.6,0.3-0.6,0.6L9.5,41.2
		l1.2,13.2C10.7,54.8,11,55.1,11.3,55.1z"/>
	<path fill="#EDEDED" d="M53.4,12.1c-0.8,0-1.5,0.7-1.5,1.5l-0.7,27.6l0.7,13.3c0,0.8,0.7,1.5,1.5,1.5c0.8,0,1.5-0.7,1.5-1.5v0
		l0.8-13.3l-0.8-27.6C54.9,12.8,54.2,12.1,53.4,12.1z"/>
	<path fill="#EDEDED" d="M32,56c0.6,0,1.1-0.5,1.1-1.1l1.1-13.7L33.1,15c0-0.6-0.5-1.1-1.1-1.1c-0.6,0-1.1,0.5-1.1,1.1L30,41.2
		l0.9,13.7C30.9,55.5,31.4,56,32,56z"/>
	<path fill="#EDEDED" d="M43.9,54.7L43.9,54.7l0.9-13.5l-0.9-29.4c0-0.7-0.6-1.3-1.3-1.3c-0.7,0-1.3,0.6-1.3,1.3l-0.8,29.4l0.8,13.5
		c0,0.7,0.6,1.3,1.3,1.3C43.3,56,43.9,55.4,43.9,54.7L43.9,54.7z"/>
	<path fill="#EDEDED" d="M113.2,24.3c-2.2,0-4.3,0.4-6.1,1.2C105.8,11.2,93.8,0,79.2,0C75.6,0,72.1,0.7,69,1.9
		c-1.2,0.5-1.5,0.9-1.5,1.9v50.4c0,1,0.8,1.8,1.7,1.9c0,0,43.7,0,44,0c8.8,0,15.9-7.1,15.9-15.9S122,24.3,113.2,24.3z"/>
	<path fill="#EDEDED" d="M64.2,3.7c-1,0-1.7,0.8-1.8,1.7l-0.7,35.8l0.7,13c0,0.9,0.8,1.7,1.8,1.7c1,0,1.7-0.8,1.7-1.7v0l0.8-13
		L66,5.5C66,4.5,65.2,3.7,64.2,3.7z"/>
</g>
</svg>
