<?xml version="1.0" encoding="utf-8"?>
<!-- Generator: Adobe Illustrator 17.1.0, SVG Export Plug-In . SVG Version: 6.00 Build 0)  -->
<!DOCTYPE svg PUBLIC "-//W3C//DTD SVG 1.1//EN" "http://www.w3.org/Graphics/SVG/1.1/DTD/svg11.dtd">
<svg version="1.1" id="Layer_1" xmlns="http://www.w3.org/2000/svg" xmlns:xlink="http://www.w3.org/1999/xlink" x="0px" y="0px"
	 viewBox="0 0 400 400" enable-background="new 0 0 400 400" xml:space="preserve">
<path fill="#EDEDED" d="M200,0.1C89.4,0.1-0.1,89.6-0.1,200.2S89.4,400.3,200,400.3s200.1-89.6,200.1-200.1
	C400.1,89.6,310.5,0.1,200,0.1z M281.2,294.3c-3.2,0-5.5-1.1-8.3-2.9c-29-17.5-65.2-26.7-103.6-26.7c-21.5,0-43.1,2.9-63.2,6.9
	c-3.2,0.9-7.5,2-9.8,2c-7.8,0-12.6-6-12.6-12.6c0-1.5,0.2-2.9,0.5-4.1c1.8-4.7,5.7-7.6,10.4-8.5c20.4-4.3,45.4-8.6,74.6-8.6
	c45.9,0,85.6,11.5,117.4,31c4.6,2.9,6.3,6.3,6.9,11.1C293.4,289,287.8,294.3,281.2,294.3z M303.3,241.5c-4.3,0-7.2-1.7-10-3.4
	c-32.4-19.2-77.5-32.2-126.9-32.2c-25.3,0-47.1,3.4-65.2,8.3c-4,1.1-6,2.3-9.8,2.3c-8.6,0-15.5-6.9-15.5-15.8c0-2.6,0.4-4.9,1.1-6.9
	c2-3.9,5.6-6.9,11-8.6c22.7-6.6,49.1-10.9,78.1-10.9c55.4,0,106.5,14.6,143.5,37c5.5,3.4,7.9,5.9,9.2,13.7c0,0.2,0,0.5,0,0.7
	C318.8,234.3,311.9,241.5,303.3,241.5z M327.7,179.5c-4,0-6.6-0.9-10.3-3.2c-36.2-21.8-92.4-33.6-146.7-33.6
	c-27.3,0-54.5,2.9-79.8,9.5c-2.9,0.9-6.6,2.3-10.3,2.3c-10.2,0-18.3-7.7-18.9-18c0.8-9.4,6.4-16.2,14-18.2
	C104.1,110,134.8,106,171,106c60.3,0,120.6,12.6,164.8,38.2c6.2,3.5,9.3,7.8,10.7,13.5c0.1,1,0.2,2.1,0.2,3.2
	C346.7,171.7,338.1,179.5,327.7,179.5z"/>

</svg>
