<?xml version="1.0" encoding="utf-8"?>
<!-- Generator: Adobe Illustrator 17.1.0, SVG Export Plug-In . SVG Version: 6.00 Build 0)  -->
<!DOCTYPE svg PUBLIC "-//W3C//DTD SVG 1.1//EN" "http://www.w3.org/Graphics/SVG/1.1/DTD/svg11.dtd">
<svg version="1.1" id="Layer_1" xmlns="http://www.w3.org/2000/svg" xmlns:xlink="http://www.w3.org/1999/xlink" x="0px" y="0px"
	 viewBox="0 0 77.9 77.9" enable-background="new 0 0 77.9 77.9" xml:space="preserve">
<g id="g3099_4_" transform="matrix(0.55912573,0,0,0.55912573,-580.3448,-883.96648)">
	<path id="path3103_4_" fill="#EDEDED" d="M1064.9,1669.2
		l0.2,2.3l1.8,0.8c0.1-2.7,1.8-4.4,4-4.8c7.1-1.5,15.8-3,26-3c16,0,29.8,4,40.9,10.8c1.6,1,2.2,2.2,2.4,3.9l6.2-4l-1.6-6.2
		l-46.3-12.4l-43.3,5.5L1064.9,1669.2z"/>
	<path id="path3105_4_" fill="#EDEDED" d="M1062,1652l2.1-0.8
		c0.1-2.6,1.5-4.8,4.5-5.7c7.9-2.3,17.1-3.8,27.2-3.8c19.3,0,37.1,5.1,50,12.9c2.1,1.3,2.9,2.2,3.3,5.5l9.5-5.2l-40-18.7l-66.9,3.9
		L1062,1652z"/>
	<path id="path3107_4_" fill="#EDEDED" d="M1059.4,1629.8
		c-0.2-3.9,1.9-6.8,4.9-7.6c9.9-2.9,20.6-4.3,33.2-4.3c21,0,42,4.4,57.4,13.3c3,1.7,3.9,3.9,4.1,7.2l9.6-6.3l-28.7-24.2l-87.8,9.4
		L1059.4,1629.8z"/>
	<path id="path3101_4_" fill="#EDEDED" d="M1107.6,1581c-38.5,0-69.7,31.2-69.7,69.7
		c0,38.5,31.2,69.7,69.7,69.7c38.5,0,69.7-31.2,69.7-69.7C1177.3,1612.2,1146.1,1581,1107.6,1581z M1097.4,1617.3
		c20.5,0,42,4.2,57.7,13.4c2.1,1.2,3.6,3,3.6,6.3c0,3.8-3,6.5-6.6,6.5c-1.4,0-2.3-0.3-3.6-1.1c-12.6-7.6-32.2-11.7-51.1-11.7
		c-9.5,0-19,1-27.8,3.3c-1,0.3-2.3,0.8-3.6,0.8c-3.7,0-6.6-2.9-6.6-6.7c0-3.8,2.3-5.9,4.9-6.7
		C1074.3,1618.7,1085.3,1617.3,1097.4,1617.3z M1096,1641.3c18.2,0,35.9,4.5,49.8,12.8c2.3,1.3,3.2,3,3.2,5.5c0,3-2.4,5.5-5.4,5.5
		c-1.5,0-2.5-0.6-3.5-1.2c-11.3-6.7-27-11.2-44.2-11.2c-8.8,0-16.4,1.2-22.7,2.9c-1.4,0.4-2.1,0.8-3.4,0.8c-3,0-5.4-2.4-5.4-5.5
		c0-3,1.4-5,4.3-5.8C1076.3,1642.9,1084.3,1641.3,1096,1641.3z M1096.9,1664c15.2,0,28.8,3.5,40.5,10.5c1.7,1,2.8,2,2.8,4.6
		c0,2.5-2,4.4-4.3,4.4c-1.1,0-1.9-0.4-2.9-1c-10.1-6.1-22.7-9.3-36.1-9.3c-7.5,0-15,1-22,2.4c-1.1,0.3-2.6,0.7-3.4,0.7
		c-2.7,0-4.4-2.1-4.4-4.4c0-2.9,1.7-4.4,3.8-4.8C1079.5,1665.2,1088,1664,1096.9,1664z"/>
</g>
</svg>
