<?xml version="1.0" encoding="utf-8"?>
<!-- Generator: Adobe Illustrator 17.1.0, SVG Export Plug-In . SVG Version: 6.00 Build 0)  -->
<!DOCTYPE svg PUBLIC "-//W3C//DTD SVG 1.1//EN" "http://www.w3.org/Graphics/SVG/1.1/DTD/svg11.dtd">
<svg version="1.1" id="Layer_2" xmlns="http://www.w3.org/2000/svg" xmlns:xlink="http://www.w3.org/1999/xlink" x="0px" y="0px"
	 viewBox="0 0 400 400" enable-background="new 0 0 400 400" xml:space="preserve">
<g>
	<path d="M39.7,45.9c0-9.2,4.9-16.7,10.8-16.7h296.8c6,0,10.9,7.5,10.9,16.7l0,0c0,9.2-4.9,16.7-10.9,16.7H50.6
		C44.6,62.6,39.7,55.1,39.7,45.9L39.7,45.9z"/>
	<path d="M129.4,7.5c0-5,2.1-9.1,4.7-9.1h129.7c2.6,0,4.7,4.1,4.7,9.1l0,0c0,5-2.1,9-4.7,9H134.1C131.5,16.5,129.4,12.4,129.4,7.5
		L129.4,7.5z"/>
	<path d="M337,81.4c-0.5-0.1-282.4,0.4-283.6,1.6c-7.3,2.4-12.2,6.8-11.7,11.2L71,389.5c0.6,6,10,8.9,21.7,8.8
		c0.6,0,213.3,0.2,213.6,0.1c11,0,20-3.1,20.6-8.8l29.4-295.3C356.9,88.3,348.2,82.6,337,81.4z M132.6,351.8
		c-6.8,0.8-12.7-2.1-13.2-6.5L93.7,126.6c-0.5-4.4,4.6-8.6,11.4-9.4c6.8-0.8,12.7,2.1,13.2,6.5l25.7,218.6
		C144.5,346.8,139.4,351,132.6,351.8z M304.3,126.6l-25.7,218.6c-0.5,4.4-6.4,7.3-13.2,6.5c-6.8-0.8-11.9-5-11.4-9.4l25.7-218.6
		c0.6-4.4,6.5-7.3,13.2-6.5C299.7,118.1,304.8,122.2,304.3,126.6z"/>
</g>
</svg>
