<?xml version="1.0" encoding="UTF-8"?>
<!DOCTYPE svg PUBLIC "-//W3C//DTD SVG 1.1//EN" "http://www.w3.org/Graphics/SVG/1.1/DTD/svg11.dtd">
<svg xmlns="http://www.w3.org/2000/svg">
  <symbol id="icon-profile-blue" viewBox="0 0 20 20">
    <g xmlns="http://www.w3.org/2000/svg" fill="#5373F7">
      <circle cx="13.9" cy="6.8" r="1.8"/>
      <path d="M10 0C4.5 0 0 4.5 0 10s4.5 10 10 10 10-4.5 10-10S15.5 0 10 0zM1.6 10c0-4.6 3.8-8.4 8.4-8.4 4.6 0 8.4 3.8 8.4 8.4 0 2.2-.9 4.2-2.3 5.7-3.1 0-5.9-1.1-6.6-4.4-.2-.8-1.3-.4-1.2.3.8 3.3 3.4 4.9 6.5 5.2-1.4 1-3 1.5-4.8 1.5-4.6.1-8.4-3.7-8.4-8.3z"/>
    </g>
  </symbol>
</svg>
