<?xml version="1.0" encoding="UTF-8"?>
<!DOCTYPE svg PUBLIC "-//W3C//DTD SVG 1.1//EN" "http://www.w3.org/Graphics/SVG/1.1/DTD/svg11.dtd">
<svg xmlns="http://www.w3.org/2000/svg" style="display:none">
  <symbol id="icon-playlists" viewBox="0 0 400 400">
    <path d="M365 137.9c-3.5-18.9-16.9-35.1-35.8-44.8-7.7-29.1-38.7-50.3-75.7-50.3H75.9c-42.7 0-77.5 28.7-77.5 64.1v102.6c0 22.6 13.9 42.9 36.8 54.5 4.3 16 15.8 29.7 31.6 38.7 5.7 30.8 37.7 54.4 76.5 54.4h177.6c42.8 0 77.5-28.7 77.5-64V190.5c0-21.7-13.2-41-33.4-52.6zm-331.7 9.6v94.3c-10.8-8.5-17.1-20-17.1-32.3V106.9C16.2 81.4 43 60.6 76 60.6h177.5c22.4 0 42.5 10 52.7 24.6-5.8-1.1-11.7-1.8-17.8-1.8H110.9c-42.8.1-77.6 28.8-77.6 64.1zM285 246.9l-61.8 49.4c-1.1.9-2.4 1.4-3.7 1.4-1.2 0-2.5-.4-3.6-1.2-2.3-1.7-3.7-4.9-3.7-8.5v-98.8c0-3.5 1.4-6.8 3.7-8.5 2.3-1.7 5.1-1.7 7.3.1l61.8 49.5c2.2 1.7 3.6 4.9 3.6 8.3-.1 3.4-1.4 6.5-3.6 8.3zm35.9-120.4H143.3c-42.7 0-77.5 28.7-77.5 64v89.9C56.6 272.2 51 261.6 51 250V147.5c0-25.5 26.8-46.3 59.8-46.3h177.5c24.6 0 45.7 11.6 54.9 28-7-1.7-14.5-2.7-22.3-2.7z"/>
  </symbol>
  <symbol id="icon-profile" viewBox="0 0 20 20">
    <circle cx="13.9" cy="6.8" r="1.8"/>
    <path d="M10 0C4.5 0 0 4.5 0 10s4.5 10 10 10 10-4.5 10-10S15.5 0 10 0zM1.6 10c0-4.6 3.8-8.4 8.4-8.4 4.6 0 8.4 3.8 8.4 8.4 0 2.2-.9 4.2-2.3 5.7-3.1 0-5.9-1.1-6.6-4.4-.2-.8-1.3-.4-1.2.3.8 3.3 3.4 4.9 6.5 5.2-1.4 1-3 1.5-4.8 1.5-4.6.1-8.4-3.7-8.4-8.3z"/>
  </symbol>
  <symbol id="icon-queues" viewBox="0 0 400 400">
    <path d="M389.5 165.4H10.4c-4.9.7-8.8 6-8.8 12.7 0 6.6 3.9 12 8.8 12.6h379.1c5-.6 8.9-6 8.9-12.6 0-6.7-3.9-12.1-8.9-12.7zM389.5 236.1H10.4c-4.9.6-8.8 6-8.8 12.7 0 6.6 3.9 12 8.8 12.6h379.1c5-.6 8.9-6 8.9-12.6 0-6.7-3.9-12.1-8.9-12.7zM389.5 306.7H10.4c-4.9.7-8.8 6-8.8 12.7 0 6.6 3.9 12 8.8 12.7h379.1c5-.6 8.9-6 8.9-12.7 0-6.7-3.9-12-8.9-12.7zM400 94c0 14.3-6.1 26-13.7 26H13.6C6.1 120 0 108.4 0 94s6.1-26 13.6-26h372.7c7.6 0 13.7 11.6 13.7 26z"/>
  </symbol>
</svg>
